# xmcd CD database file
#
# Track frame offsets:
#	150
#	80008
#	123128
#	194210
#	228238
#
# Disc length: 3397 seconds
#
# Revision: 0
# Processed by: cddbd v1.5.2PL0 Copyright (c) Steve Scherf et al.
# Submitted via: CDex 1.70beta2
#
DISCID=3d0d4305
DTITLE=Vinny Golia - Commemoration (Large Ensemble) [CD2]
DYEAR=1992
DGENRE=Jazz
TTITLE0=Menhir
TTITLE1=For Of Something
TTITLE2=Tumulus Or Griffin (for the drummer Grover Mooney)
TTITLE3=Interlude One
TTITLE4=Goleom
EXTD=YEAR: 1992
EXTT0=
EXTT1=
EXTT2=
EXTT3=
EXTT4=
PLAYORDER=
